<svg width="71" height="52" viewBox="0 0 71 52" fill="none" xmlns="http://www.w3.org/2000/svg">
<path d="M18.5387 44.5147C16.9872 44.5147 15.6461 44.2519 14.5153 43.7268C13.4109 43.2277 12.5694 42.4792 11.9909 41.4813C11.4123 40.5095 11.1625 39.341 11.2414 37.9753L11.6359 31.5147C11.7148 30.1228 11.5044 29.1248 11.0048 28.5207C10.5051 27.8904 9.40067 27.5753 7.69143 27.5753H3.35254V24.4238H7.69143C9.40067 24.4238 10.5051 24.1217 11.0048 23.5177C11.5044 22.8874 11.7148 21.8763 11.6359 20.4844L11.2414 14.0238C11.1625 12.6319 11.4123 11.45 11.9909 10.4783C12.5694 9.50658 13.4109 8.77126 14.5153 8.27225C15.6461 7.74701 16.9872 7.48438 18.5387 7.48438H20.3137V10.6359H18.5387C17.3027 10.6359 16.3561 10.9248 15.6987 11.5026C15.0412 12.0541 14.7388 12.8945 14.7914 14.0238L15.1859 20.4844C15.2911 22.1914 14.8835 23.5571 13.9631 24.5813C13.0427 25.5793 11.7411 26.0783 10.0581 26.0783V25.8813C11.7148 25.8813 13.0033 26.3935 13.9237 27.4177C14.8703 28.442 15.2911 29.8076 15.1859 31.5147L14.7914 37.9753C14.7388 39.1046 15.0412 39.945 15.6987 40.4965C16.3561 41.0744 17.3027 41.3632 18.5387 41.3632H20.3137V44.5147H18.5387ZM50.6551 44.5147V41.3632H52.4301C53.6659 41.3632 54.6126 41.0744 55.2701 40.4965C55.9276 39.945 56.2298 39.1046 56.1773 37.9753L55.7829 31.5147C55.6776 29.8076 56.0854 28.442 57.0057 27.4177C57.9523 26.3935 59.254 25.8813 60.9107 25.8813V26.0783C59.2276 26.0783 57.9259 25.5793 57.0057 24.5813C56.0854 23.5571 55.6776 22.1914 55.7829 20.4844L56.1773 14.0238C56.2298 12.8945 55.9276 12.0541 55.2701 11.5026C54.6126 10.9248 53.6659 10.6359 52.4301 10.6359H50.6551V7.48438H52.4301C53.9815 7.48438 55.3096 7.74701 56.414 8.27225C57.5449 8.77126 58.3992 9.50658 58.9779 10.4783C59.5565 11.45 59.8062 12.6319 59.7273 14.0238L59.3329 20.4844C59.254 21.8763 59.4642 22.8874 59.964 23.5177C60.4638 24.1217 61.5682 24.4238 63.2773 24.4238H67.6162V27.5753H63.2773C61.5942 27.5753 60.4898 27.8904 59.964 28.5207C59.4642 29.1248 59.254 30.1228 59.3329 31.5147L59.7273 37.9753C59.8062 39.341 59.5565 40.5095 58.9779 41.4813C58.3992 42.4792 57.5449 43.2277 56.414 43.7268C55.3096 44.2519 53.9815 44.5147 52.4301 44.5147H50.6551Z" fill="#05FFF3"/>
<path d="M30.8497 39.8186C32.8508 39.4991 34.5045 38.5455 35.9225 37.1472C36.4471 36.6299 36.9505 36.0936 37.3522 35.4719C38.034 34.4169 38.5123 33.301 38.389 32.0065C38.3213 31.2969 38.0612 30.6599 37.644 30.0898C37.1135 29.3648 36.4377 28.8101 35.6262 28.417C34.7985 28.0161 33.9181 27.8268 33.0099 27.7376C32.0085 27.6392 31.0144 27.7338 30.0237 27.8671C28.9395 28.013 27.8604 28.1999 26.7744 28.3285C26.0562 28.4137 25.3289 28.4397 24.6089 28.3122C23.2672 28.0745 22.9677 26.8546 23.2945 25.9579C23.523 25.3307 23.9593 24.8643 24.5127 24.5013C25.4437 23.8905 26.4896 23.6733 27.5786 23.603C28.4324 23.5479 29.2791 23.6278 30.1208 23.7526C31.8807 24.0137 33.6395 24.2823 35.397 24.5586C36.6867 24.7614 37.9703 25.0053 39.263 25.1863C40.4072 25.3465 41.5613 25.3871 42.7099 25.1958C43.474 25.0685 44.2072 24.8191 44.9034 24.4923C46.0197 23.9686 46.9376 23.1725 47.7628 22.2664C48.3974 21.5696 48.9283 20.7999 49.2818 19.9269C49.9472 18.2846 50.0541 16.6195 49.4644 14.9233C49.0786 13.8134 48.457 12.8605 47.6468 12.0259C47.3987 11.7704 47.1036 11.5579 46.8169 11.3431C46.1325 10.8307 45.3602 10.501 44.5323 10.2995C43.4136 10.0273 42.2867 10.0243 41.1791 10.3278C40.0802 10.6288 39.0011 11.001 37.9082 11.325C37.3948 11.4773 36.8718 11.5991 36.3493 11.7181C35.4358 11.9263 34.5133 12.08 33.5731 12.0725C33.1456 12.0691 32.7184 12.033 32.291 12.0138C31.9357 11.9977 31.8207 12.1411 31.9604 12.4701C32.0457 12.671 32.1689 12.8636 32.3086 13.0321C32.8608 13.6983 33.5919 14.1118 34.3754 14.4446C35.9806 15.1265 37.6624 15.2887 39.3773 15.1011C40.3669 14.9929 41.3467 14.7917 42.3309 14.6323C42.8783 14.5436 43.4235 14.524 43.9532 14.721C44.5745 14.952 45.0229 15.3901 45.3401 15.9549C45.8789 16.9139 45.774 18.1127 45.0529 18.9349C44.5315 19.5295 43.8637 19.9235 43.102 20.1537C42.633 20.2955 42.1526 20.3685 41.667 20.3422C40.705 20.29 39.7378 20.2586 38.7849 20.1304C37.3384 19.9358 35.9034 19.6585 34.4613 19.4302C33.1379 19.2206 31.8132 19.0167 30.4858 18.8336C29.1262 18.6459 27.7665 18.6534 26.4153 18.9332C24.5682 19.3157 22.8735 20.0221 21.4593 21.3041C20.8141 21.8889 20.2647 22.555 19.8076 23.301C19.2267 24.2494 18.8408 25.26 18.7197 26.3666C18.6292 27.1939 18.7002 28.0087 18.9775 28.793C19.2698 29.6196 19.6682 30.3894 20.2844 31.0326C20.6438 31.4079 21.059 31.7022 21.518 31.9367C22.8941 32.6398 24.3696 32.7992 25.8807 32.6516C27.2417 32.5186 28.5968 32.3238 29.9544 32.1556C30.7469 32.0574 31.5382 31.9433 32.3406 32.0007C32.745 32.0296 33.1386 32.1072 33.4668 32.3561C33.9711 32.7385 34.0977 33.4739 33.7925 34.0934C33.473 34.7419 32.963 35.2225 32.3963 35.6431C31.8145 36.075 31.217 36.4871 30.612 36.8864C30.3233 37.0769 30.0119 37.2421 29.6927 37.3757C29.1153 37.6172 28.5318 37.85 27.9367 38.0425C27.3363 38.2367 26.7085 38.2918 26.0766 38.2733C26.0312 38.272 25.9854 38.2729 25.9402 38.2769C25.9128 38.2792 25.8862 38.2895 25.8223 38.3053C25.875 38.4031 25.9114 38.4953 25.9683 38.5725C26.3097 39.0354 26.7946 39.2924 27.3173 39.4912C28.4594 39.9258 29.6368 39.9959 30.8497 39.8186Z" fill="#22d3ee"/>
</svg>
