<svg width="232" height="170" viewBox="0 0 232 170" fill="none" xmlns="http://www.w3.org/2000/svg">
<path d="M60.5778 145.53C55.5082 145.53 51.126 144.671 47.4311 142.955C43.8222 141.323 41.0726 138.876 39.1822 135.614C37.2918 132.436 36.4756 128.616 36.7333 124.152L38.0222 103.03C38.28 98.4799 37.5926 95.2172 35.96 93.2425C34.3274 91.1818 30.7185 90.1515 25.1333 90.1515H10.9556V79.8485H25.1333C30.7185 79.8485 34.3274 78.8611 35.96 76.8864C37.5926 74.8258 38.28 71.5202 38.0222 66.9697L36.7333 45.8485C36.4756 41.298 37.2918 37.4344 39.1822 34.2576C41.0726 31.0808 43.8222 28.6768 47.4311 27.0455C51.126 25.3284 55.5082 24.4697 60.5778 24.4697H66.3778V34.7728H60.5778C56.5393 34.7728 53.446 35.7172 51.2978 37.6061C49.1496 39.4091 48.1615 42.1565 48.3333 45.8485L49.6222 66.9697C49.966 72.5505 48.634 77.0152 45.6267 80.3637C42.6193 83.6263 38.366 85.2576 32.8667 85.2576V84.6137C38.28 84.6137 42.4904 86.2879 45.4978 89.6364C48.5911 92.9849 49.966 97.4496 49.6222 103.03L48.3333 124.152C48.1615 127.844 49.1496 130.591 51.2978 132.394C53.446 134.283 56.5393 135.227 60.5778 135.227H66.3778V145.53H60.5778ZM165.522 145.53V135.227H171.322C175.36 135.227 178.453 134.283 180.602 132.394C182.75 130.591 183.738 127.844 183.566 124.152L182.277 103.03C181.933 97.4496 183.266 92.9849 186.273 89.6364C189.366 86.2879 193.619 84.6137 199.033 84.6137V85.2576C193.533 85.2576 189.28 83.6263 186.273 80.3637C183.266 77.0152 181.933 72.5505 182.277 66.9697L183.566 45.8485C183.738 42.1565 182.75 39.4091 180.602 37.6061C178.453 35.7172 175.36 34.7728 171.322 34.7728H165.522V24.4697H171.322C176.391 24.4697 180.731 25.3284 184.339 27.0455C188.035 28.6768 190.826 31.0808 192.717 34.2576C194.608 37.4344 195.424 41.298 195.166 45.8485L193.877 66.9697C193.619 71.5202 194.306 74.8258 195.939 76.8864C197.573 78.8611 201.181 79.8485 206.766 79.8485H220.944V90.1515H206.766C201.266 90.1515 197.658 91.1818 195.939 93.2425C194.306 95.2172 193.619 98.4799 193.877 103.03L195.166 124.152C195.424 128.616 194.608 132.436 192.717 135.614C190.826 138.876 188.035 141.323 184.339 142.955C180.731 144.671 176.391 145.53 171.322 145.53H165.522Z" fill="#05FFF3"/>
<path d="M100.804 130.173C107.342 129.129 112.746 126.011 117.379 121.44C119.094 119.749 120.739 117.996 122.051 115.963C124.279 112.514 125.842 108.866 125.439 104.634C125.218 102.314 124.368 100.232 123.005 98.3676C121.271 95.9975 119.063 94.184 116.411 92.8989C113.707 91.5883 110.83 90.9696 107.862 90.6779C104.59 90.3562 101.342 90.6654 98.1045 91.1012C94.5617 91.5781 91.0358 92.1891 87.4871 92.6097C85.1402 92.888 82.7639 92.9733 80.411 92.5563C76.0269 91.7792 75.0485 87.7913 76.1162 84.8595C76.863 82.809 78.2885 81.2842 80.0968 80.0975C83.1391 78.1007 86.5564 77.3907 90.1149 77.161C92.9049 76.9808 95.6715 77.2419 98.422 77.6501C104.172 78.5035 109.919 79.3817 115.662 80.285C119.877 80.9479 124.071 81.7453 128.295 82.337C132.034 82.8607 135.805 82.9935 139.558 82.368C142.055 81.952 144.451 81.1365 146.726 80.0682C150.373 78.356 153.372 75.7535 156.069 72.7913C158.143 70.5132 159.877 67.9968 161.032 65.1427C163.207 59.7738 163.556 54.3302 161.629 48.7849C160.369 45.1564 158.337 42.0412 155.69 39.3128C154.879 38.4775 153.915 37.7825 152.978 37.0805C150.742 35.4052 148.218 34.3274 145.513 33.6688C141.858 32.7789 138.175 32.7688 134.556 33.7611C130.965 34.7453 127.439 35.962 123.868 37.0213C122.19 37.519 120.481 37.9172 118.774 38.3064C115.789 38.987 112.775 39.4895 109.703 39.465C108.306 39.4539 106.91 39.336 105.513 39.273C104.352 39.2206 103.976 39.6894 104.433 40.765C104.712 41.4217 105.114 42.0512 105.571 42.6023C107.375 44.78 109.764 46.132 112.324 47.2201C117.569 49.4493 123.065 49.9795 128.668 49.3664C131.902 49.0125 135.104 48.3547 138.32 47.8335C140.108 47.5436 141.89 47.4796 143.621 48.1236C145.651 48.8788 147.116 50.311 148.152 52.1575C149.913 55.2927 149.57 59.2119 147.214 61.8999C145.51 63.8435 143.328 65.1318 140.839 65.8844C139.307 66.3479 137.737 66.5866 136.15 66.5006C133.007 66.3299 129.846 66.2274 126.733 65.8081C122.006 65.1719 117.317 64.2654 112.605 63.519C108.28 62.8338 103.952 62.1674 99.6147 61.5685C95.1719 60.955 90.7288 60.9794 86.3137 61.8942C80.278 63.1447 74.7407 65.454 70.1194 69.6453C68.0114 71.557 66.2161 73.7346 64.7225 76.1737C62.8243 79.274 61.5632 82.578 61.1677 86.1956C60.8719 88.9004 61.104 91.5642 62.0101 94.1283C62.965 96.8305 64.2669 99.3471 66.2803 101.45C67.4549 102.677 68.8114 103.639 70.3113 104.406C74.808 106.704 79.6291 107.225 84.567 106.743C89.0142 106.308 93.4421 105.671 97.8782 105.121C100.468 104.8 103.053 104.427 105.675 104.615C106.997 104.709 108.283 104.963 109.355 105.777C111.003 107.027 111.417 109.431 110.42 111.456C109.376 113.577 107.709 115.148 105.857 116.523C103.956 117.935 102.004 119.282 100.027 120.587C99.0837 121.21 98.0661 121.75 97.0231 122.187C95.1362 122.977 93.2298 123.738 91.2851 124.367C89.3232 125.002 87.2716 125.182 85.207 125.121C85.0585 125.117 84.9091 125.12 84.7613 125.133C84.6718 125.141 84.5847 125.174 84.3762 125.226C84.5481 125.546 84.6672 125.847 84.8532 126.099C85.9686 127.613 87.5531 128.453 89.2612 129.103C92.9932 130.524 96.8402 130.753 100.804 130.173Z" fill="#05FFF3"/>
</svg>
